<mxfile host="app.diagrams.net" modified="2023-09-21T12:39:13.414Z" agent="Mozilla/5.0 (Macintosh; Intel Mac OS X 10_15_7) AppleWebKit/537.36 (KHTML, like Gecko) Chrome/116.0.0.0 Safari/537.36" version="21.3.7" etag="M31bcqLn9wrzIBE2Vr3j" type="github">
  <diagram name="第 1 页" id="DBiD0JjobPjrXwt1oq7a">
    <mxGraphModel>
      <root>
        <mxCell id="0" />
        <mxCell id="1" parent="0" />
      </root>
    </mxGraphModel>
  </diagram>
</mxfile>
